<?xml version="1.0" encoding="UTF-8"?>
<svg width="1200pt" height="1200pt" version="1.1" viewBox="0 0 1200 1200" xmlns="http://www.w3.org/2000/svg">
 <path d="m432 1092h348c80.027 0 132-75.973 132-156v-564h-612v564c0 80.027 51.973 156 132 156zm228-516c0-15.266 31.859-25.152 47.113-25.152 15.25 0 48.887 9.8867 48.887 25.152v336c0 15.266-33.625 25.738-48.887 25.738-15.266 0-47.113-10.473-47.113-25.738zm-204 0c0-15.266 28.586-25.152 43.848-25.152 15.266 0 52.152 9.8867 52.152 25.152v336c0 15.266-36.887 25.738-52.152 25.738-15.262 0-43.848-10.473-43.848-25.738z"/>
 <path d="m924 321.59c0-35.02-36.133-69.59-84-69.59h-31.367c-18.074-92.473-99.637-162.5-197.32-162.5-97.68 0-179.25 70.031-197.32 162.5h-54c-47.867 0-84 36.984-84 72v24h648zm-460.68-69.59c17.184-65.762 76.934-114.5 148-114.5s130.81 48.742 148 114.5z"/>
</svg>
