<?xml version="1.0" encoding="UTF-8"?>
<svg width="1200pt" height="1200pt" version="1.1" viewBox="0 0 1200 1200" xmlns="http://www.w3.org/2000/svg">
 <path d="m1049 493.36c0-15.234 12.328-27.562 27.562-27.562s27.562 12.328 27.562 27.562v529.6c0 42.844-17.484 81.75-45.703 109.92-28.172 28.172-67.125 45.703-109.92 45.703h-780.66c-42.844 0-81.75-17.484-109.92-45.703-28.172-28.172-45.703-67.125-45.703-109.92v-780.66c0-42.844 17.484-81.75 45.703-109.92 28.172-28.172 67.125-45.703 109.92-45.703h532.97c15.234 0 27.562 12.328 27.562 27.562s-12.328 27.562-27.562 27.562h-532.97c-27.609 0-52.734 11.297-71.016 29.578-18.234 18.234-29.578 43.359-29.578 71.016v780.66c0 27.609 11.344 52.734 29.578 71.016 18.234 18.234 43.359 29.578 71.016 29.578h780.66c27.609 0 52.734-11.344 71.016-29.578 18.234-18.234 29.578-43.359 29.578-71.016v-529.6zm-36.844-463.92 167.68 167.68c10.781 10.781 10.781 28.172 0 38.953l-627.19 627.19c-4.5469 4.5469-10.312 7.1719-16.219 7.875l-201.14 34.594c-14.953 2.5781-29.203-7.5469-31.734-22.5-0.5625-3.3281-0.51562-6.6562 0.09375-9.8438l34.734-201.89c1.0312-5.8125 3.7969-10.922 7.6875-14.859l627.19-627.24c10.781-10.781 28.172-10.781 38.953 0z" fill-rule="evenodd"/>
</svg>
