<svg width="92" height="26" viewBox="0 0 92 26" fill="none" xmlns="http://www.w3.org/2000/svg" data-darkreader-inline-invert="">
<path d="M15.7126 0.710865V11.4382H4.34574V0.710865H0V24.9294H4.34574V13.848H15.7126V24.9294H20.0583V0.710865H15.7126Z" fill="currentColor"></path>
<path d="M59.2442 20.7321C59.2442 20.7321 59.2442 14.302 59.2442 13.7338C59.2442 12.3204 58.9244 9.71356 55.8607 8.26023C52.797 6.80689 47.7603 6.03025 43.7229 10.4702L45.2762 11.7836C45.2762 11.7836 48.6397 8.54004 52.62 10.2304C53.8392 10.75 54.6986 12.1891 54.83 13.1199C54.9413 13.9194 54.83 15.387 54.83 15.387C53.6736 14.676 51.8976 13.9308 49.5163 13.9308C44.9593 13.9308 42.3324 16.3778 42.3324 19.7413C42.3324 23.1048 44.9593 25.312 49.5163 25.312C52.0346 25.312 53.8763 24.1156 55.0213 23.042C55.1155 23.6331 55.244 24.1898 55.4267 24.8151H59.7439C59.2785 23.5674 59.2471 21.2032 59.2442 20.7321ZM50.7669 23.0477C46.5468 23.0477 46.7866 19.7442 46.7866 19.7442C46.7866 19.7442 46.5468 16.2008 50.7669 16.2008C52.5286 16.2008 53.8991 16.8632 54.8271 17.4799L54.8242 20.7464C53.8934 21.937 52.5486 23.0477 50.7669 23.0477Z" fill="currentColor"></path>
<path d="M31.9306 7.12383C25.038 7.42934 22.6681 12.4404 22.6681 16.0437C22.6681 22.5909 28.0617 25.3177 31.9306 25.3177C35.7995 25.3177 38.1894 24.324 40.1195 21.5373L38.5463 20.3838C38.5463 20.3838 36.993 22.7108 33.5524 22.7108C29.5322 22.7108 27.3622 19.707 27.3622 17.2572H41.0132C41.8127 12.3204 38.1494 6.84972 31.9306 7.12383ZM27.365 14.8474C27.365 14.8474 27.8418 9.57366 31.8021 9.41376C36.2192 9.41376 36.4991 14.8474 36.4991 14.8474H27.365Z" fill="currentColor"></path>
<path d="M67.8101 8.84842C67.2761 9.40805 66.865 10.0448 66.4738 10.7129V7.53499L61.8368 7.54355C62.071 8.17171 62.1966 9.15964 62.2537 9.95055V24.818H66.6137L66.6194 15.5412C66.6223 15.0073 66.6708 14.4648 66.7707 13.9394C67.199 11.6923 68.8437 10.296 71.1393 10.2104L72.7697 10.2075V7.13239C70.9452 7.0039 69.0978 7.50072 67.8101 8.84842Z" fill="currentColor"></path>
<path d="M92 24.9379C91.7659 24.3098 91.6402 23.3218 91.5831 22.5309V0.682312H87.1517V9.98767C85.8954 8.21454 83.9367 7.07814 81.2213 7.07814C77.0012 7.07814 73.0095 10.9528 73.0095 16.0923C73.0095 21.9199 77.0012 25.3063 81.2213 25.3063C84.0709 25.3063 86.0011 24.3669 87.2117 22.5395C87.226 22.6908 87.2488 22.9392 87.2774 23.1762C87.3716 23.7673 87.5001 24.324 87.6828 24.9493H92C92 24.9465 91.9972 24.9408 91.9972 24.9379H92ZM82.609 22.3482C79.985 22.3482 77.4638 20.0497 77.4638 16.1979C77.4638 12.6317 79.9821 10.3332 82.609 10.3332C84.4992 10.3332 86.2952 11.5695 87.1546 13.5996V19.1217C86.298 21.2004 84.4992 22.3482 82.609 22.3482Z" fill="currentColor"></path>
</svg>